<?xml version="1.0" encoding="utf-8"?>
<!-- Generator: Adobe Illustrator 16.0.0, SVG Export Plug-In . SVG Version: 6.00 Build 0)  -->
<!DOCTYPE svg PUBLIC "-//W3C//DTD SVG 1.1//EN" "http://www.w3.org/Graphics/SVG/1.1/DTD/svg11.dtd">
<svg version="1.1" id="Layer_1" xmlns="http://www.w3.org/2000/svg" xmlns:xlink="http://www.w3.org/1999/xlink" x="0px" y="0px"
	 width="1400px" height="980px" viewBox="0 0 1400 980" enable-background="new 0 0 1400 980" xml:space="preserve">
<g>
	<g>
		<g>
			<rect fill="#FFFFFF" width="1400" height="980"/>
		</g>
	</g>
	<g>
		<g>
			<path fill="#FF635E" d="M918.9,736.3c0,11.8-9.6,21.4-21.4,21.4H528.1c-11.8,0-21.4-9.6-21.4-21.4V233c0-11.8,9.6-21.4,21.4-21.4
				h369.4c11.8,0,21.4,9.6,21.4,21.4V736.3z"/>
			<path d="M897.5,760.3H528.1c-13.3,0-24.1-10.8-24.1-24.1V233c0-13.3,10.8-24.1,24.1-24.1h369.4c13.3,0,24.1,10.8,24.1,24.1v503.2
				C921.6,749.5,910.8,760.3,897.5,760.3z M528.1,214.3c-10.3,0-18.7,8.4-18.7,18.7v503.2c0,10.3,8.4,18.7,18.7,18.7h369.4
				c10.3,0,18.7-8.4,18.7-18.7V233c0-10.3-8.4-18.7-18.7-18.7H528.1z"/>
		</g>
		<g>
			<path d="M532.4,261.6h-51.3c-1.5,0-2.7-1.2-2.7-2.7s1.2-2.7,2.7-2.7h51.3c1.5,0,2.7,1.2,2.7,2.7S533.8,261.6,532.4,261.6z"/>
		</g>
		<g>
			<path d="M532.4,302.6h-51.3c-1.5,0-2.7-1.2-2.7-2.7c0-1.5,1.2-2.7,2.7-2.7h51.3c1.5,0,2.7,1.2,2.7,2.7
				C535,301.4,533.8,302.6,532.4,302.6z"/>
		</g>
		<g>
			<path d="M532.4,343.7h-51.3c-1.5,0-2.7-1.2-2.7-2.7c0-1.5,1.2-2.7,2.7-2.7h51.3c1.5,0,2.7,1.2,2.7,2.7
				C535,342.5,533.8,343.7,532.4,343.7z"/>
		</g>
		<g>
			<path d="M532.4,384.7h-51.3c-1.5,0-2.7-1.2-2.7-2.7s1.2-2.7,2.7-2.7h51.3c1.5,0,2.7,1.2,2.7,2.7S533.8,384.7,532.4,384.7z"/>
		</g>
		<g>
			<path d="M532.4,425.8h-51.3c-1.5,0-2.7-1.2-2.7-2.7s1.2-2.7,2.7-2.7h51.3c1.5,0,2.7,1.2,2.7,2.7S533.8,425.8,532.4,425.8z"/>
		</g>
		<g>
			<path d="M532.4,466.8h-51.3c-1.5,0-2.7-1.2-2.7-2.7s1.2-2.7,2.7-2.7h51.3c1.5,0,2.7,1.2,2.7,2.7S533.8,466.8,532.4,466.8z"/>
		</g>
		<g>
			<path d="M532.4,507.8h-51.3c-1.5,0-2.7-1.2-2.7-2.7s1.2-2.7,2.7-2.7h51.3c1.5,0,2.7,1.2,2.7,2.7S533.8,507.8,532.4,507.8z"/>
		</g>
		<g>
			<path d="M532.4,548.9h-51.3c-1.5,0-2.7-1.2-2.7-2.7s1.2-2.7,2.7-2.7h51.3c1.5,0,2.7,1.2,2.7,2.7S533.8,548.9,532.4,548.9z"/>
		</g>
		<g>
			<path d="M532.4,589.9h-51.3c-1.5,0-2.7-1.2-2.7-2.7s1.2-2.7,2.7-2.7h51.3c1.5,0,2.7,1.2,2.7,2.7S533.8,589.9,532.4,589.9z"/>
		</g>
		<g>
			<path d="M532.4,631h-51.3c-1.5,0-2.7-1.2-2.7-2.7s1.2-2.7,2.7-2.7h51.3c1.5,0,2.7,1.2,2.7,2.7S533.8,631,532.4,631z"/>
		</g>
		<g>
			<path d="M532.4,672h-51.3c-1.5,0-2.7-1.2-2.7-2.7s1.2-2.7,2.7-2.7h51.3c1.5,0,2.7,1.2,2.7,2.7S533.8,672,532.4,672z"/>
		</g>
		<g>
			<path d="M532.4,713.1h-51.3c-1.5,0-2.7-1.2-2.7-2.7s1.2-2.7,2.7-2.7h51.3c1.5,0,2.7,1.2,2.7,2.7S533.8,713.1,532.4,713.1z"/>
		</g>
		<g>
			<g>
				<g>
					<rect x="581.2" y="285.2" fill="#E6D78F" width="198.1" height="41"/>
					<path d="M779.3,329H581.2c-1.5,0-2.7-1.2-2.7-2.7v-41c0-1.5,1.2-2.7,2.7-2.7h198.1c1.5,0,2.7,1.2,2.7,2.7v41
						C782,327.8,780.8,329,779.3,329z M583.9,323.6h192.7v-35.7H583.9V323.6z"/>
				</g>
				<g>
					<polygon fill="#FFF09E" points="581.2,326.3 581.2,497.6 731.1,497.6 779.3,449.4 779.3,326.3 					"/>
					<path d="M731.1,500.3H581.2c-1.5,0-2.7-1.2-2.7-2.7V326.3c0-1.5,1.2-2.7,2.7-2.7h198.1c1.5,0,2.7,1.2,2.7,2.7v123.1
						c0,0.7-0.3,1.4-0.8,1.9L733,499.5C732.5,500,731.8,500.3,731.1,500.3z M583.9,494.9H730l46.6-46.6V329H583.9V494.9z"/>
				</g>
			</g>
			<g>
				<polygon fill="#E6D78F" points="731.1,497.6 779.3,449.4 731.1,449.4 				"/>
				<path d="M731.1,500.3c-0.3,0-0.7-0.1-1-0.2c-1-0.4-1.7-1.4-1.7-2.5v-48.2c0-1.5,1.2-2.7,2.7-2.7h48.2c1.1,0,2.1,0.7,2.5,1.7
					c0.4,1,0.2,2.2-0.6,2.9L733,499.5C732.5,500,731.8,500.3,731.1,500.3z M733.8,452.1v39l39-39H733.8z"/>
			</g>
		</g>
	</g>
	<g>
		<rect x="812.4" y="211.6" fill="#FFFFFF" width="43.7" height="542.8"/>
		<path d="M856.2,757.1h-43.7c-1.5,0-2.7-1.2-2.7-2.7V211.6c0-1.5,1.2-2.7,2.7-2.7h43.7c1.5,0,2.7,1.2,2.7,2.7v542.8
			C858.8,755.9,857.6,757.1,856.2,757.1z M815.1,751.8h38.4V214.3h-38.4V751.8z"/>
	</g>
	<g>
		<rect x="986" y="111.3" fill="#FFFFFF" width="331.9" height="460.4"/>
		<path d="M1317.9,574.4H986c-1.5,0-2.7-1.2-2.7-2.7V111.3c0-1.5,1.2-2.7,2.7-2.7h331.9c1.5,0,2.7,1.2,2.7,2.7v460.4
			C1320.6,573.2,1319.4,574.4,1317.9,574.4z M988.7,569h326.6V114H988.7V569z"/>
	</g>
	<g>
		<path d="M1047.5,227.3h-27.7c-1.5,0-2.7-1.2-2.7-2.7c0-1.5,1.2-2.7,2.7-2.7h27.7c1.5,0,2.7,1.2,2.7,2.7
			C1050.2,226.1,1049,227.3,1047.5,227.3z"/>
	</g>
	<g>
		<path d="M1135,227.3h-59.8c-1.5,0-2.7-1.2-2.7-2.7c0-1.5,1.2-2.7,2.7-2.7h59.8c1.5,0,2.7,1.2,2.7,2.7
			C1137.7,226.1,1136.5,227.3,1135,227.3z"/>
	</g>
	<g>
		<path d="M1079.7,265.2h-59.8c-1.5,0-2.7-1.2-2.7-2.7c0-1.5,1.2-2.7,2.7-2.7h59.8c1.5,0,2.7,1.2,2.7,2.7
			C1082.3,264,1081.1,265.2,1079.7,265.2z"/>
	</g>
	<g>
		<path d="M1142.1,303.1h-122.2c-1.5,0-2.7-1.2-2.7-2.7s1.2-2.7,2.7-2.7h122.2c1.5,0,2.7,1.2,2.7,2.7S1143.6,303.1,1142.1,303.1z"/>
	</g>
	<g>
		<path d="M1278.6,341h-112.4c-1.5,0-2.7-1.2-2.7-2.7s1.2-2.7,2.7-2.7h112.4c1.5,0,2.7,1.2,2.7,2.7S1280.1,341,1278.6,341z"/>
	</g>
	<g>
		<path d="M1182.3,379h-59.8c-1.5,0-2.7-1.2-2.7-2.7s1.2-2.7,2.7-2.7h59.8c1.5,0,2.7,1.2,2.7,2.7S1183.8,379,1182.3,379z"/>
	</g>
	<g>
		<path d="M1229.9,454.8h-210c-1.5,0-2.7-1.2-2.7-2.7c0-1.5,1.2-2.7,2.7-2.7h210c1.5,0,2.7,1.2,2.7,2.7
			C1232.6,453.6,1231.4,454.8,1229.9,454.8z"/>
	</g>
	<g>
		<path d="M1143.9,492.7h-124c-1.5,0-2.7-1.2-2.7-2.7s1.2-2.7,2.7-2.7h124c1.5,0,2.7,1.2,2.7,2.7S1145.4,492.7,1143.9,492.7z"/>
	</g>
	<g>
		<path d="M1187.6,227.3h-21.4c-1.5,0-2.7-1.2-2.7-2.7c0-1.5,1.2-2.7,2.7-2.7h21.4c1.5,0,2.7,1.2,2.7,2.7
			C1190.3,226.1,1189.1,227.3,1187.6,227.3z"/>
	</g>
	<g>
		<path d="M1047.5,416.9h-27.7c-1.5,0-2.7-1.2-2.7-2.7c0-1.5,1.2-2.7,2.7-2.7h27.7c1.5,0,2.7,1.2,2.7,2.7
			C1050.2,415.7,1049,416.9,1047.5,416.9z"/>
	</g>
	<g>
		<path d="M1187.6,416.9h-21.4c-1.5,0-2.7-1.2-2.7-2.7c0-1.5,1.2-2.7,2.7-2.7h21.4c1.5,0,2.7,1.2,2.7,2.7
			C1190.3,415.7,1189.1,416.9,1187.6,416.9z"/>
	</g>
	<g>
		<path d="M1143.9,416.9h-64.2c-1.5,0-2.7-1.2-2.7-2.7c0-1.5,1.2-2.7,2.7-2.7h64.2c1.5,0,2.7,1.2,2.7,2.7
			C1146.6,415.7,1145.4,416.9,1143.9,416.9z"/>
	</g>
	<g>
		<path d="M1233.1,227.3h-21.4c-1.5,0-2.7-1.2-2.7-2.7c0-1.5,1.2-2.7,2.7-2.7h21.4c1.5,0,2.7,1.2,2.7,2.7
			C1235.8,226.1,1234.6,227.3,1233.1,227.3z"/>
	</g>
	<g>
		<path d="M1278.6,227.3h-21.4c-1.5,0-2.7-1.2-2.7-2.7c0-1.5,1.2-2.7,2.7-2.7h21.4c1.5,0,2.7,1.2,2.7,2.7
			C1281.3,226.1,1280.1,227.3,1278.6,227.3z"/>
	</g>
	<g>
		<path d="M1187.6,303.1h-21.4c-1.5,0-2.7-1.2-2.7-2.7s1.2-2.7,2.7-2.7h21.4c1.5,0,2.7,1.2,2.7,2.7S1189.1,303.1,1187.6,303.1z"/>
	</g>
	<g>
		<path d="M1143.9,341h-21.4c-1.5,0-2.7-1.2-2.7-2.7s1.2-2.7,2.7-2.7h21.4c1.5,0,2.7,1.2,2.7,2.7S1145.4,341,1143.9,341z"/>
	</g>
	<g>
		<path d="M1229.9,379h-21.4c-1.5,0-2.7-1.2-2.7-2.7s1.2-2.7,2.7-2.7h21.4c1.5,0,2.7,1.2,2.7,2.7S1231.4,379,1229.9,379z"/>
	</g>
	<g>
		<path d="M1278.6,379H1252c-1.5,0-2.7-1.2-2.7-2.7s1.2-2.7,2.7-2.7h26.7c1.5,0,2.7,1.2,2.7,2.7S1280.1,379,1278.6,379z"/>
	</g>
	<g>
		<path d="M1101.1,341h-21.4c-1.5,0-2.7-1.2-2.7-2.7s1.2-2.7,2.7-2.7h21.4c1.5,0,2.7,1.2,2.7,2.7S1102.6,341,1101.1,341z"/>
	</g>
	<g>
		<path d="M1056.2,341h-36.3c-1.5,0-2.7-1.2-2.7-2.7s1.2-2.7,2.7-2.7h36.3c1.5,0,2.7,1.2,2.7,2.7S1057.7,341,1056.2,341z"/>
	</g>
	<g>
		<path d="M1101.1,379h-81.2c-1.5,0-2.7-1.2-2.7-2.7s1.2-2.7,2.7-2.7h81.2c1.5,0,2.7,1.2,2.7,2.7S1102.6,379,1101.1,379z"/>
	</g>
	<g>
		<path d="M1233.1,303.1h-21.4c-1.5,0-2.7-1.2-2.7-2.7s1.2-2.7,2.7-2.7h21.4c1.5,0,2.7,1.2,2.7,2.7S1234.6,303.1,1233.1,303.1z"/>
	</g>
	<g>
		<path d="M1278.6,303.1h-21.4c-1.5,0-2.7-1.2-2.7-2.7s1.2-2.7,2.7-2.7h21.4c1.5,0,2.7,1.2,2.7,2.7S1280.1,303.1,1278.6,303.1z"/>
	</g>
	<g>
		<path d="M1142.1,265.2h-40.6c-1.5,0-2.7-1.2-2.7-2.7c0-1.5,1.2-2.7,2.7-2.7h40.6c1.5,0,2.7,1.2,2.7,2.7
			C1144.8,264,1143.6,265.2,1142.1,265.2z"/>
	</g>
	<g>
		<path d="M1187.6,265.2h-21.4c-1.5,0-2.7-1.2-2.7-2.7c0-1.5,1.2-2.7,2.7-2.7h21.4c1.5,0,2.7,1.2,2.7,2.7
			C1190.3,264,1189.1,265.2,1187.6,265.2z"/>
	</g>
	<g>
		<path d="M1233.1,265.2h-21.4c-1.5,0-2.7-1.2-2.7-2.7c0-1.5,1.2-2.7,2.7-2.7h21.4c1.5,0,2.7,1.2,2.7,2.7
			C1235.8,264,1234.6,265.2,1233.1,265.2z"/>
	</g>
	<g>
		<path d="M1278.6,454.8H1252c-1.5,0-2.7-1.2-2.7-2.7c0-1.5,1.2-2.7,2.7-2.7h26.7c1.5,0,2.7,1.2,2.7,2.7
			C1281.3,453.6,1280.1,454.8,1278.6,454.8z"/>
	</g>
	<g>
		<g>
			<polygon points="1100.9,164.7 1071.5,164.7 1071.5,142.1 1066.4,142.1 1066.4,195.5 1071.5,195.5 1071.5,169.5 1100.9,169.5 
				1100.9,195.5 1106,195.5 1106,142.1 1100.9,142.1 			"/>
		</g>
		<g>
			<polygon points="1110.2,146.9 1126,146.9 1126,195.5 1131.1,195.5 1131.1,146.9 1146.9,146.9 1146.9,142.1 1110.2,142.1 			"/>
		</g>
		<g>
			<polygon points="1194.4,140.9 1193.7,142.1 1191,142.1 1174,176.2 1156.3,142.1 1153.5,142.1 1152.9,141 1152.9,142.1 
				1150.8,142.1 1150.8,195.5 1155.6,195.5 1155.6,151.7 1172.5,183.4 1175.5,183.4 1191.7,151.9 1191.7,195.5 1196.5,195.5 
				1196.5,142.1 1194.4,142.1 			"/>
		</g>
		<g>
			<polygon points="1210.6,190.6 1210.6,142.1 1205.5,142.1 1205.5,195.5 1237.5,195.5 1237.5,190.6 			"/>
		</g>
	</g>
	<g>
		<path d="M162.7,178.7H74.3c-1.5,0-2.7-1.2-2.7-2.7v-48.1c0-26.3,21.4-47.7,47.7-47.7c22.4,0,41.1,16,45.4,38.9
			c0.6,3,0.9,6,0.9,8.9l-0.3,48C165.4,177.5,164.2,178.7,162.7,178.7z M77,173.4h83l0.2-45.3c0-2.6-0.3-5.2-0.8-7.9
			c-3.8-20.3-20.4-34.5-40.2-34.5c-23.3,0-42.3,19-42.3,42.3V173.4z"/>
	</g>
	<g>
		<path d="M431,531.4H162.7c-1.5,0-2.7-1.2-2.7-2.7V176l0.3-48c0-2.6-0.3-5.2-0.8-7.9c-3.8-20.3-20.4-34.5-40.2-34.5
			c-1.5,0-2.7-1.2-2.7-2.7s1.2-2.7,2.7-2.7H386c26.3,0,47.7,21.4,47.7,47.7v400.8C433.7,530.2,432.5,531.4,431,531.4z M165.4,526
			h263V127.9c0-23.3-19-42.3-42.3-42.3H140.8c12.2,6.5,21.1,18.5,24,33.5c0.6,3,0.9,6,0.9,8.9l-0.3,90.7V526z"/>
	</g>
	<g>
		<path d="M397.4,224.1H203.1c-1.5,0-2.7-1.2-2.7-2.7c0-1.5,1.2-2.7,2.7-2.7h194.3c1.5,0,2.7,1.2,2.7,2.7
			C400.1,222.9,398.9,224.1,397.4,224.1z"/>
	</g>
	<g>
		<path d="M397.4,267.9H203.1c-1.5,0-2.7-1.2-2.7-2.7c0-1.5,1.2-2.7,2.7-2.7h194.3c1.5,0,2.7,1.2,2.7,2.7
			C400.1,266.7,398.9,267.9,397.4,267.9z"/>
	</g>
	<g>
		<path d="M397.4,311.7H203.1c-1.5,0-2.7-1.2-2.7-2.7c0-1.5,1.2-2.7,2.7-2.7h194.3c1.5,0,2.7,1.2,2.7,2.7
			C400.1,310.5,398.9,311.7,397.4,311.7z"/>
	</g>
	<g>
		<path d="M397.4,355.5H203.1c-1.5,0-2.7-1.2-2.7-2.7s1.2-2.7,2.7-2.7h194.3c1.5,0,2.7,1.2,2.7,2.7S398.9,355.5,397.4,355.5z"/>
	</g>
	<g>
		<path d="M397.4,441.3H203.1c-1.5,0-2.7-1.2-2.7-2.7s1.2-2.7,2.7-2.7h194.3c1.5,0,2.7,1.2,2.7,2.7S398.9,441.3,397.4,441.3z"/>
	</g>
	<g>
		<rect x="203.1" y="129.5" fill="#FF635E" width="100.5" height="54.5"/>
		<path d="M303.6,186.7H203.1c-1.5,0-2.7-1.2-2.7-2.7v-54.5c0-1.5,1.2-2.7,2.7-2.7h100.5c1.5,0,2.7,1.2,2.7,2.7V184
			C306.3,185.5,305.1,186.7,303.6,186.7z M205.8,181.4h95.2v-49.2h-95.2V181.4z"/>
	</g>
	<g>
		<path d="M285.9,398.2h-82.8c-1.5,0-2.7-1.2-2.7-2.7c0-1.5,1.2-2.7,2.7-2.7h82.8c1.5,0,2.7,1.2,2.7,2.7
			C288.6,397,287.4,398.2,285.9,398.2z"/>
	</g>
	<g>
		<path d="M397.1,486.8h-82.8c-1.5,0-2.7-1.2-2.7-2.7s1.2-2.7,2.7-2.7h82.8c1.5,0,2.7,1.2,2.7,2.7S398.6,486.8,397.1,486.8z"/>
	</g>
	<g>
		<g>
			<rect x="527.8" y="144.4" fill="#00A9FF" width="341.9" height="23.8"/>
			<path d="M869.8,170.9H527.8c-1.5,0-2.7-1.2-2.7-2.7v-23.8c0-1.5,1.2-2.7,2.7-2.7h341.9c1.5,0,2.7,1.2,2.7,2.7v23.8
				C872.4,169.7,871.2,170.9,869.8,170.9z M530.5,165.5h336.6v-18.4H530.5V165.5z"/>
		</g>
		<g>
			<rect x="527.8" y="120.7" fill="#00A9FF" width="341.9" height="23.8"/>
			<path d="M869.8,147.1H527.8c-1.5,0-2.7-1.2-2.7-2.7v-23.8c0-1.5,1.2-2.7,2.7-2.7h341.9c1.5,0,2.7,1.2,2.7,2.7v23.8
				C872.4,145.9,871.2,147.1,869.8,147.1z M530.5,141.8h336.6v-18.4H530.5V141.8z"/>
		</g>
		<g>
			<path d="M527.8,170.9h-21.1c-1.5,0-2.7-1.2-2.7-2.7v-47.5c0-1.5,1.2-2.7,2.7-2.7h21.1c1.5,0,2.7,1.2,2.7,2.7v47.5
				C530.5,169.7,529.3,170.9,527.8,170.9z M509.4,165.5h15.7v-42.2h-15.7V165.5z"/>
		</g>
	</g>
	<g>
		<g>
			<path d="M894.2,158.2c-0.5,0-1-0.1-1.4-0.4c-0.8-0.5-1.3-1.4-1.3-2.3v-22.2c0-0.9,0.5-1.8,1.3-2.3c0.8-0.5,1.8-0.5,2.6-0.1
				l21.4,11.1c0.9,0.5,1.4,1.4,1.4,2.4c0,1-0.6,1.9-1.4,2.4l-21.4,11.1C895,158.1,894.6,158.2,894.2,158.2z M896.9,137.7v13.4
				l12.9-6.7L896.9,137.7z"/>
		</g>
		<g>
			<path d="M869.8,170.9c-0.5,0-1-0.1-1.4-0.4c-0.8-0.5-1.3-1.4-1.3-2.3v-47.5c0-0.9,0.5-1.8,1.3-2.3c0.8-0.5,1.8-0.5,2.6-0.1
				l24.4,12.7c0.9,0.5,1.4,1.4,1.4,2.4v22.2c0,1-0.6,1.9-1.4,2.4L871,170.6C870.6,170.8,870.2,170.9,869.8,170.9z M872.4,125.1v38.7
				l19.1-9.9v-19L872.4,125.1z"/>
		</g>
	</g>
	<g>
		<rect x="88.6" y="251.4" fill="#00A9FF" width="74.3" height="25"/>
		<path d="M162.9,279H88.6c-1.5,0-2.7-1.2-2.7-2.7v-25c0-1.5,1.2-2.7,2.7-2.7h74.3c1.5,0,2.7,1.2,2.7,2.7v25
			C165.6,277.8,164.4,279,162.9,279z M91.3,273.7h69v-19.6h-69V273.7z"/>
	</g>
	<g>
		<rect x="88.6" y="316.5" fill="#00A9FF" width="74.3" height="25"/>
		<path d="M162.9,344.2H88.6c-1.5,0-2.7-1.2-2.7-2.7v-25c0-1.5,1.2-2.7,2.7-2.7h74.3c1.5,0,2.7,1.2,2.7,2.7v25
			C165.6,343,164.4,344.2,162.9,344.2z M91.3,338.8h69v-19.6h-69V338.8z"/>
	</g>
	<g>
		<rect x="88.6" y="381.6" fill="#00A9FF" width="74.3" height="25"/>
		<path d="M162.9,409.3H88.6c-1.5,0-2.7-1.2-2.7-2.7v-25c0-1.5,1.2-2.7,2.7-2.7h74.3c1.5,0,2.7,1.2,2.7,2.7v25
			C165.6,408.1,164.4,409.3,162.9,409.3z M91.3,404h69v-19.6h-69V404z"/>
	</g>
	<g>
		<g>
			<path fill="#00A9FF" d="M834.3,585.2c-46.7,0-84.6,37.9-84.6,84.6s37.9,84.6,84.6,84.6s84.6-37.9,84.6-84.6
				S881,585.2,834.3,585.2z"/>
			<path d="M834.3,757.1c-48.1,0-87.3-39.2-87.3-87.3c0-48.1,39.2-87.3,87.3-87.3c48.1,0,87.3,39.2,87.3,87.3
				C921.6,718,882.4,757.1,834.3,757.1z M834.3,587.9c-45.2,0-81.9,36.8-81.9,82c0,45.2,36.8,81.9,81.9,81.9s81.9-36.8,81.9-81.9
				C916.2,624.6,879.5,587.9,834.3,587.9z"/>
		</g>
		<g>
			<path fill="#F1F2F2" d="M1004,649.1h-57.5c1.2,6.7,2,13.6,2,20.7c0,7.1-0.7,14-2,20.7h57.5V649.1z"/>
			<path d="M1004,693.3h-57.5c-0.8,0-1.5-0.4-2.1-1c-0.5-0.6-0.7-1.4-0.6-2.2c1.3-7.1,1.9-13.7,1.9-20.3c0-6.6-0.6-13.2-1.9-20.3
				c-0.1-0.8,0.1-1.6,0.6-2.2c0.5-0.6,1.3-1,2.1-1h57.5c1.5,0,2.7,1.2,2.7,2.7v41.5C1006.7,692.1,1005.5,693.3,1004,693.3z
				 M949.7,687.9h51.7v-36.1h-51.7c1,6.2,1.5,12.2,1.5,18.1C951.2,675.7,950.7,681.7,949.7,687.9z"/>
		</g>
		<g>
			<path fill="#BCBEC0" d="M946.5,649.1c-9.8-53.2-56.3-93.5-112.2-93.5c-63.1,0-114.2,51.1-114.2,114.2
				c0,63.1,51.1,114.2,114.2,114.2c56,0,102.5-40.3,112.2-93.5c1.2-6.7,2-13.7,2-20.7C948.5,662.7,947.8,655.8,946.5,649.1z
				 M834.3,754.5c-46.7,0-84.6-37.9-84.6-84.6s37.9-84.6,84.6-84.6s84.6,37.9,84.6,84.6S881,754.5,834.3,754.5z"/>
			<path d="M834.3,786.7c-64.4,0-116.9-52.4-116.9-116.9c0-64.4,52.4-116.9,116.9-116.9c56.4,0,104.7,40.2,114.9,95.7
				c1.4,7.4,2,14.3,2,21.2c0,6.9-0.7,13.8-2,21.2C939,746.5,890.7,786.7,834.3,786.7z M834.3,558.3c-61.5,0-111.5,50-111.5,111.5
				c0,61.5,50,111.5,111.5,111.5c53.8,0,99.9-38.4,109.6-91.3c1.3-7.1,1.9-13.7,1.9-20.3c0-6.6-0.6-13.2-1.9-20.3
				C934.2,596.7,888.1,558.3,834.3,558.3z M834.3,757.1c-48.1,0-87.3-39.2-87.3-87.3c0-48.1,39.2-87.3,87.3-87.3
				c48.1,0,87.3,39.2,87.3,87.3C921.6,718,882.4,757.1,834.3,757.1z M834.3,587.9c-45.2,0-81.9,36.8-81.9,82
				c0,45.2,36.8,81.9,81.9,81.9s81.9-36.8,81.9-81.9C916.2,624.6,879.5,587.9,834.3,587.9z"/>
		</g>
		<g>
			<path fill="#FFF09E" d="M1173.1,690.5c0,7.6-6.2,13.8-13.8,13.8h-141.5c-7.6,0-13.8-6.2-13.8-13.8v-41.4
				c0-7.6,6.2-13.8,13.8-13.8h141.5c7.6,0,13.8,6.2,13.8,13.8V690.5z"/>
			<path d="M1159.3,707h-141.5c-9.1,0-16.5-7.4-16.5-16.5v-41.4c0-9.1,7.4-16.5,16.5-16.5h141.5c9.1,0,16.5,7.4,16.5,16.5v41.4
				C1175.8,699.6,1168.4,707,1159.3,707z M1017.8,638c-6.1,0-11.1,5-11.1,11.1v41.4c0,6.1,5,11.1,11.1,11.1h141.5
				c6.1,0,11.1-5,11.1-11.1v-41.4c0-6.1-5-11.1-11.1-11.1H1017.8z"/>
		</g>
		<g>
			<path d="M1047.5,707c-1.5,0-2.7-1.2-2.7-2.7v-34.5c0-1.5,1.2-2.7,2.7-2.7s2.7,1.2,2.7,2.7v34.5C1050.2,705.8,1049,707,1047.5,707
				z"/>
		</g>
		<g>
			<path d="M1088.6,707c-1.5,0-2.7-1.2-2.7-2.7v-34.5c0-1.5,1.2-2.7,2.7-2.7s2.7,1.2,2.7,2.7v34.5
				C1091.3,705.8,1090.1,707,1088.6,707z"/>
		</g>
		<g>
			<path d="M1129.6,707c-1.5,0-2.7-1.2-2.7-2.7v-34.5c0-1.5,1.2-2.7,2.7-2.7s2.7,1.2,2.7,2.7v34.5
				C1132.3,705.8,1131.1,707,1129.6,707z"/>
		</g>
		<g>
			<g>
				<path fill="#FFFFFF" d="M811.9,682c0,6.6-0.8,11.3-2.4,14.2c-2.1,3.9-5.9,5.8-11.6,5.8c-6.3,0-10.4-2.5-12.5-7.6l-0.4-1.1
					l-1,0.5c-0.5,0.3-1,0.5-1.6,0.8c-0.4,0.2-0.9,0.4-1.4,0.5l-1.2,0.3l0.5,1.1c2.8,7,8.6,10.6,17.3,10.6c13.2,0,19.8-8.1,19.8-24
					V630h-5.5V682z"/>
			</g>
			<g>
				<path fill="#FFFFFF" d="M870.7,669.8c-3-1.9-8.4-3.9-16.3-6c-0.4-0.2-0.8-0.3-1.1-0.3l-0.4-0.1c-7.2-1.9-11.9-3.8-14-5.7
					c-2.8-2.6-4.1-5.6-4.1-9.1c0-5,1.6-8.7,5-11.4c3.1-2.5,7.3-3.8,12.5-3.8c5.6,0,10.2,1.5,13.7,4.5c3.7,3.2,5.5,7.4,5.6,13.1l0,1
					h5.4l-0.1-1.1c-0.4-7.1-2.8-12.7-7.3-16.6c-4.3-3.9-10.1-5.9-17.2-5.9c-6.5,0-12,1.7-16.1,5c-4.6,3.5-6.9,8.6-6.9,15.2
					c0,5.3,1.9,9.6,5.5,12.9c2.4,2.2,7.8,4.4,16.5,6.9c0.5,0.1,0.8,0.2,1,0.3l0.3,0.1c7.4,2,12.2,3.7,14.4,5.2
					c4.3,2.7,6.3,6.5,6.3,11.8c0,5.1-2,9-6.1,12c-3.6,2.7-8.2,4.1-13.6,4.1c-6.2,0-11.1-1.8-14.7-5.3c-3.6-3.6-5.6-8.5-6-14.5
					l-0.1-1h-5.5l0.1,1.1c0.5,7.7,3.1,13.8,7.7,18.1c4.5,4.5,10.7,6.7,18.4,6.7c7.2,0,13.2-1.8,17.8-5.3c5.1-4,7.6-9.6,7.6-16.7
					C878.9,678.4,876.1,673.3,870.7,669.8z"/>
			</g>
		</g>
	</g>
	<g>
		<polygon fill="#00A9FF" points="475.4,814.4 539.9,851.6 475.4,888.9 		"/>
		<path d="M475.4,891.6c-0.5,0-0.9-0.1-1.3-0.4c-0.8-0.5-1.3-1.4-1.3-2.3v-74.5c0-1,0.5-1.8,1.3-2.3c0.8-0.5,1.9-0.5,2.7,0
			l64.5,37.3c0.8,0.5,1.3,1.4,1.3,2.3c0,1-0.5,1.8-1.3,2.3l-64.5,37.2C476.3,891.4,475.8,891.6,475.4,891.6z M478,819v65.2
			l56.5-32.6L478,819z"/>
	</g>
	<g>
		<polygon fill="#00A9FF" points="572.5,814.4 637,851.6 572.5,888.9 		"/>
		<path d="M572.5,891.6c-0.5,0-0.9-0.1-1.3-0.4c-0.8-0.5-1.3-1.4-1.3-2.3v-74.5c0-1,0.5-1.8,1.3-2.3c0.8-0.5,1.9-0.5,2.7,0
			l64.5,37.3c0.8,0.5,1.3,1.4,1.3,2.3c0,1-0.5,1.8-1.3,2.3l-64.5,37.2C573.4,891.4,573,891.6,572.5,891.6z M575.2,819v65.2
			l56.5-32.6L575.2,819z"/>
	</g>
	<g>
		<polygon fill="#00A9FF" points="669.7,814.4 734.2,851.6 669.7,888.9 		"/>
		<path d="M669.7,891.6c-0.5,0-0.9-0.1-1.3-0.4c-0.8-0.5-1.3-1.4-1.3-2.3v-74.5c0-1,0.5-1.8,1.3-2.3c0.8-0.5,1.9-0.5,2.7,0
			l64.5,37.3c0.8,0.5,1.3,1.4,1.3,2.3c0,1-0.5,1.8-1.3,2.3L671,891.2C670.6,891.4,670.1,891.6,669.7,891.6z M672.3,819v65.2
			l56.5-32.6L672.3,819z"/>
	</g>
	<g>
		<g>
			<path d="M778.1,854.3h-13.4c-1.5,0-2.7-1.2-2.7-2.7s1.2-2.7,2.7-2.7h13.4c1.5,0,2.7,1.2,2.7,2.7S779.6,854.3,778.1,854.3z"/>
		</g>
		<g>
			<path d="M880.1,854.3h-25.5c-1.5,0-2.7-1.2-2.7-2.7s1.2-2.7,2.7-2.7h25.5c1.5,0,2.7,1.2,2.7,2.7S881.5,854.3,880.1,854.3z
				 M829.1,854.3h-25.5c-1.5,0-2.7-1.2-2.7-2.7s1.2-2.7,2.7-2.7h25.5c1.5,0,2.7,1.2,2.7,2.7S830.6,854.3,829.1,854.3z"/>
		</g>
		<g>
			<path d="M918.9,854.3h-13.4c-1.5,0-2.7-1.2-2.7-2.7s1.2-2.7,2.7-2.7h13.4c1.5,0,2.7,1.2,2.7,2.7S920.4,854.3,918.9,854.3z"/>
		</g>
	</g>
	<g>
		<path d="M1267.9,902.7H975.3c-1.5,0-2.7-1.2-2.7-2.7V766.2c0-1.5,1.2-2.7,2.7-2.7h237.5v-49.8c0-1.1,0.7-2.1,1.7-2.5
			c1-0.4,2.2-0.2,2.9,0.6l52.5,52.5c0.5,0.5,0.8,1.2,0.8,1.9V900C1270.6,901.5,1269.4,902.7,1267.9,902.7z M978,897.4h287.3v-130
			l-47.1-47.1v46c0,1.5-1.2,2.7-2.7,2.7H978V897.4z"/>
	</g>
	<g>
		<path fill="#F1F2F2" d="M419.6,733.8c0,80.4-65.2,145.6-145.6,145.6c-80.4,0-145.6-65.2-145.6-145.6S193.6,588.2,274,588.2
			C354.4,588.2,419.6,653.4,419.6,733.8z"/>
		<path d="M274,882c-81.7,0-148.2-66.5-148.2-148.2S192.3,585.6,274,585.6s148.2,66.5,148.2,148.2S355.8,882,274,882z M274,590.9
			c-78.8,0-142.9,64.1-142.9,142.9S195.2,876.7,274,876.7s142.9-64.1,142.9-142.9S352.8,590.9,274,590.9z"/>
	</g>
	<g>
		<path fill="#00A9FF" d="M333.9,733.8c0,33.1-26.8,59.9-59.9,59.9c-33.1,0-59.9-26.8-59.9-59.9s26.8-59.9,59.9-59.9
			C307.1,673.9,333.9,700.7,333.9,733.8z"/>
		<path d="M274,796.4c-34.5,0-62.6-28.1-62.6-62.6s28.1-62.6,62.6-62.6c34.5,0,62.6,28.1,62.6,62.6S308.5,796.4,274,796.4z
			 M274,676.6c-31.6,0-57.2,25.7-57.2,57.2S242.4,791,274,791s57.2-25.7,57.2-57.2S305.6,676.6,274,676.6z"/>
	</g>
	<g>
		<path fill="#FFFFFF" d="M294.7,733.8c0,11.4-9.2,20.7-20.7,20.7s-20.7-9.2-20.7-20.7s9.2-20.7,20.7-20.7S294.7,722.4,294.7,733.8z
			"/>
		<path d="M274,757.1c-12.9,0-23.3-10.5-23.3-23.3s10.5-23.3,23.3-23.3c12.9,0,23.3,10.5,23.3,23.3S286.9,757.1,274,757.1z
			 M274,715.8c-9.9,0-18,8.1-18,18s8.1,18,18,18c9.9,0,18-8.1,18-18S283.9,715.8,274,715.8z"/>
	</g>
	<g>
		<path d="M274,861.5c-1.5,0-2.7-1.2-2.7-2.7c0-1.5,1.2-2.7,2.7-2.7c67.5,0,122.4-54.9,122.4-122.4c0-1.5,1.2-2.7,2.7-2.7
			c1.5,0,2.7,1.2,2.7,2.7C401.7,804.2,344.4,861.5,274,861.5z"/>
	</g>
	<g>
		<rect x="88.6" y="581.1" fill="#FFFFFF" width="118.7" height="118.7"/>
		<path d="M207.4,702.5H88.6c-1.5,0-2.7-1.2-2.7-2.7V581.1c0-1.5,1.2-2.7,2.7-2.7h118.7c1.5,0,2.7,1.2,2.7,2.7v118.7
			C210,701.3,208.8,702.5,207.4,702.5z M91.3,697.2h113.4V583.8H91.3V697.2z"/>
	</g>
	<g>
		<path fill="#FFFFFF" d="M189,661.7c2.3-4.4,3.9-9.2,4.6-14.3l-12.6-4.1c0.1-1,0.1-1.9,0.1-2.9c0-1-0.1-1.9-0.1-2.9l12.6-4.1
			c-0.8-5.1-2.4-9.9-4.6-14.3l-12.6,4.1c-1-1.6-2.1-3.2-3.4-4.6l7.8-10.7c-3.5-3.6-7.6-6.5-12.1-8.8l-7.7,10.7
			c-1.7-0.7-3.6-1.3-5.5-1.7v-13.2c-2.4-0.4-5-0.6-7.5-0.6s-5.1,0.2-7.5,0.6v13.2c-1.9,0.4-3.7,1-5.5,1.7l-7.7-10.7
			c-4.5,2.3-8.6,5.3-12.1,8.8l7.8,10.7c-1.2,1.4-2.4,3-3.4,4.6l-12.6-4.1c-2.3,4.4-3.9,9.2-4.6,14.3l12.6,4.1
			c-0.1,0.9-0.1,1.9-0.1,2.9c0,1,0.1,1.9,0.1,2.9l-12.6,4.1c0.8,5.1,2.4,9.9,4.6,14.3l12.6-4.1c1,1.6,2.1,3.2,3.4,4.6l-7.8,10.7
			c3.5,3.6,7.6,6.6,12.1,8.8l7.7-10.7c1.8,0.7,3.6,1.3,5.5,1.8v13.2c2.4,0.4,4.9,0.6,7.5,0.6c2.6,0,5.1-0.2,7.5-0.6l0-13.2
			c1.9-0.4,3.7-1,5.5-1.8l7.7,10.7c4.5-2.3,8.6-5.3,12.1-8.8l-7.8-10.7c1.3-1.4,2.4-3,3.4-4.6L189,661.7z M148,663
			c-12.4,0-22.5-10.1-22.5-22.5c0-12.4,10.1-22.5,22.5-22.5c12.4,0,22.5,10.1,22.5,22.5C170.5,652.9,160.4,663,148,663z"/>
		<path d="M148,689.4c-2.6,0-5.3-0.2-7.9-0.7c-1.3-0.2-2.2-1.3-2.2-2.6v-11.1c-0.6-0.2-1.3-0.4-1.9-0.6l-6.5,9
			c-0.8,1.1-2.2,1.4-3.4,0.8c-4.8-2.4-9.1-5.5-12.8-9.3c-0.9-0.9-1-2.4-0.3-3.5l6.5-9c-0.4-0.5-0.8-1-1.1-1.6l-10.6,3.4
			c-1.3,0.4-2.6-0.2-3.2-1.3c-2.5-4.8-4.1-9.8-4.9-15.1c-0.2-1.3,0.6-2.5,1.8-2.9l10.6-3.4c0-0.3,0-0.6,0-1c0-0.3,0-0.6,0-1
			l-10.6-3.4c-1.2-0.4-2-1.7-1.8-2.9c0.8-5.3,2.4-10.3,4.9-15.1c0.6-1.2,2-1.7,3.2-1.3l10.6,3.4c0.4-0.5,0.7-1,1.1-1.6l-6.5-9
			c-0.8-1.1-0.7-2.5,0.3-3.5c3.7-3.8,8.1-6.9,12.8-9.3c1.2-0.6,2.6-0.2,3.4,0.8l6.5,9c0.6-0.2,1.2-0.4,1.8-0.6v-11.1
			c0-1.3,0.9-2.4,2.2-2.6c5.3-0.9,10.6-0.9,15.9,0c1.3,0.2,2.2,1.3,2.2,2.6V606c0.6,0.2,1.3,0.4,1.8,0.6l6.5-9
			c0.8-1.1,2.2-1.4,3.4-0.8c4.8,2.4,9.1,5.6,12.8,9.3c0.9,0.9,1,2.4,0.3,3.5l-6.6,9c0.4,0.5,0.8,1,1.1,1.6l10.6-3.4
			c1.2-0.4,2.6,0.2,3.2,1.3c2.5,4.8,4.1,9.8,4.9,15.1c0.2,1.3-0.6,2.5-1.8,2.9l-10.6,3.4c0,0.3,0,0.6,0,1c0,0.3,0,0.6,0,1l10.6,3.4
			c1.2,0.4,2,1.7,1.8,2.9c-0.8,5.3-2.4,10.3-4.9,15.1c-0.6,1.2-2,1.7-3.2,1.3l-10.6-3.4c-0.4,0.5-0.7,1-1.1,1.5l6.6,9
			c0.8,1.1,0.7,2.5-0.3,3.5c-3.8,3.8-8.1,6.9-12.9,9.3c-1.2,0.6-2.6,0.2-3.4-0.8l-6.5-9c-0.6,0.2-1.2,0.4-1.8,0.6l0,11.1
			c0,1.3-0.9,2.4-2.2,2.6C153.3,689.1,150.6,689.4,148,689.4z M143.2,683.7c3.2,0.4,6.4,0.4,9.7,0l0-10.9c0-1.2,0.9-2.3,2.1-2.6
			c1.8-0.4,3.5-1,5.1-1.6c1.2-0.5,2.5-0.1,3.2,0.9l6.4,8.8c2.8-1.6,5.4-3.5,7.8-5.7l-6.4-8.8c-0.7-1-0.7-2.4,0.1-3.3
			c1.1-1.3,2.2-2.8,3.1-4.3c0.6-1.1,1.9-1.5,3.1-1.2l10.4,3.4c1.3-3,2.3-6,3-9.2l-10.3-3.4c-1.2-0.4-1.9-1.5-1.8-2.8
			c0.1-0.9,0.1-1.8,0.1-2.7c0-0.9-0.1-1.8-0.1-2.6c-0.1-1.2,0.7-2.4,1.8-2.8l10.3-3.4c-0.7-3.2-1.7-6.2-3-9.2l-10.4,3.4
			c-1.2,0.4-2.5-0.1-3.1-1.2c-0.9-1.5-2-3-3.1-4.3c-0.8-0.9-0.9-2.3-0.1-3.3l6.4-8.8c-2.4-2.2-5-4.1-7.8-5.7l-6.4,8.8
			c-0.7,1-2.1,1.4-3.2,0.9c-1.5-0.6-3.1-1.2-5-1.6c-1.2-0.3-2.1-1.4-2.1-2.6v-10.9c-3.2-0.4-6.4-0.4-9.7,0v10.9
			c0,1.2-0.9,2.3-2.1,2.6c-1.9,0.4-3.5,1-5,1.6c-1.1,0.5-2.5,0.1-3.2-0.9l-6.4-8.8c-2.8,1.6-5.4,3.5-7.8,5.7l6.4,8.8
			c0.7,1,0.7,2.4-0.1,3.3c-1.1,1.3-2.2,2.7-3.1,4.3c-0.6,1.1-1.9,1.5-3.1,1.2l-10.3-3.4c-1.3,2.9-2.3,6-3,9.2l10.3,3.4
			c1.2,0.4,1.9,1.5,1.8,2.8c-0.1,0.9-0.1,1.8-0.1,2.6c0,0.9,0.1,1.8,0.1,2.6c0.1,1.2-0.7,2.4-1.8,2.8l-10.3,3.4
			c0.6,3.2,1.6,6.2,3,9.2l10.3-3.4c1.2-0.4,2.5,0.1,3.1,1.2c0.9,1.5,2,3,3.1,4.3c0.8,0.9,0.9,2.3,0.1,3.3l-6.4,8.8
			c2.4,2.2,5,4.1,7.8,5.7l6.4-8.8c0.7-1,2.1-1.4,3.2-0.9c1.5,0.6,3.1,1.2,5,1.6c1.2,0.3,2.1,1.4,2.1,2.6V683.7z M148,665.7
			c-13.9,0-25.2-11.3-25.2-25.2c0-13.9,11.3-25.2,25.2-25.2c13.9,0,25.2,11.3,25.2,25.2C173.2,654.4,161.9,665.7,148,665.7z
			 M148,620.6c-10.9,0-19.8,8.9-19.8,19.8c0,10.9,8.9,19.9,19.8,19.9c10.9,0,19.9-8.9,19.9-19.9C167.8,629.5,158.9,620.6,148,620.6z
			"/>
	</g>
	<g>
		<path d="M1060.1,865.4c-0.7,0-1.4-0.3-1.9-0.8l-29.9-29.9c-1-1-1-2.7,0-3.8l29.9-29.9c1-1,2.7-1,3.8,0c1,1,1,2.7,0,3.8l-28,28
			l28,28c1,1,1,2.7,0,3.8C1061.5,865.1,1060.8,865.4,1060.1,865.4z"/>
	</g>
	<g>
		<path d="M1184.8,865.4c-0.7,0-1.4-0.3-1.9-0.8c-1-1-1-2.7,0-3.8l28-28l-28-28c-1-1-1-2.7,0-3.8c1-1,2.7-1,3.8,0l29.9,29.9
			c1,1,1,2.7,0,3.8l-29.9,29.9C1186.2,865.1,1185.5,865.4,1184.8,865.4z"/>
	</g>
	<g>
		<path d="M1144.8,854c-0.7,0-1.4-0.3-1.9-0.8l-44.6-44.8c-1-1-1-2.7,0-3.8c1-1,2.7-1,3.8,0l44.6,44.8c1,1,1,2.7,0,3.8
			C1146.2,853.7,1145.5,854,1144.8,854z"/>
	</g>
</g>
</svg>
